<?xml version="1.0" encoding="UTF-8" standalone="no"?>
<!DOCTYPE svg PUBLIC "-//W3C//DTD SVG 1.1//EN" "http://www.w3.org/Graphics/SVG/1.1/DTD/svg11.dtd">
<svg width="100%" height="100%" viewBox="0 0 30 30" version="1.1" xmlns="http://www.w3.org/2000/svg" xmlns:xlink="http://www.w3.org/1999/xlink" xml:space="preserve" xmlns:serif="http://www.serif.com/" style="fill-rule:evenodd;clip-rule:evenodd;stroke-linejoin:round;stroke-miterlimit:2;">
    <g transform="matrix(0.625,0,0,0.625,0,0)">
        <path d="M13.05,40.132C12.141,40.132 11.392,39.837 10.802,39.247C10.213,38.658 9.919,37.908 9.919,36.998C9.919,36.368 10.076,35.765 10.392,35.191C10.708,34.617 11.163,34.21 11.755,33.968L20.269,30.604L20.269,24.003C18.061,26.639 15.827,28.623 13.569,29.954C11.31,31.285 8.743,31.95 5.869,31.95L5.869,28.675C8.161,28.675 10.244,28.154 12.118,27.112C13.991,26.07 15.666,24.607 17.142,22.723L20.042,19.461C20.387,19.045 20.793,18.702 21.261,18.431C21.729,18.16 22.242,18.025 22.8,18.025L25.2,18.025C25.758,18.025 26.28,18.162 26.764,18.437C27.248,18.712 27.663,19.057 28.008,19.473L30.908,22.747C32.484,24.564 34.175,26.006 35.982,27.074C37.789,28.141 39.839,28.675 42.132,28.675L42.132,31.95C39.29,31.95 36.732,31.285 34.457,29.954C32.181,28.623 29.94,26.639 27.732,24.003L27.732,30.604L36.26,33.969C36.842,34.21 37.292,34.617 37.608,35.191C37.924,35.764 38.082,36.366 38.082,36.996C38.082,37.905 37.787,38.655 37.198,39.246C36.608,39.836 35.859,40.132 34.95,40.132L19.8,40.132L19.8,39.45C19.8,38.559 20.069,37.853 20.606,37.332C21.143,36.811 21.841,36.55 22.7,36.55L29.35,36.55C29.617,36.55 29.85,36.45 30.05,36.25C30.25,36.05 30.35,35.817 30.35,35.55C30.35,35.283 30.25,35.05 30.05,34.85C29.85,34.65 29.617,34.55 29.35,34.55L22.7,34.55C21.241,34.55 20.077,35 19.206,35.9C18.335,36.8 17.9,37.983 17.9,39.45L17.9,40.132L13.05,40.132ZM24.003,15.025C22.961,15.025 22.07,14.654 21.329,13.913C20.589,13.171 20.219,12.277 20.219,11.232C20.219,10.189 20.588,9.298 21.326,8.559C22.065,7.82 22.955,7.45 23.997,7.45C25.039,7.45 25.93,7.82 26.671,8.56C27.411,9.301 27.782,10.193 27.782,11.237C27.782,12.281 27.412,13.174 26.674,13.914C25.935,14.655 25.045,15.025 24.003,15.025Z" style="fill:rgb(186,255,41);fill-rule:nonzero;"/>
    </g>
</svg>
