<?xml version="1.0" encoding="UTF-8" standalone="no"?>
<!DOCTYPE svg PUBLIC "-//W3C//DTD SVG 1.1//EN" "http://www.w3.org/Graphics/SVG/1.1/DTD/svg11.dtd">
<svg width="100%" height="100%" viewBox="0 0 30 30" version="1.1" xmlns="http://www.w3.org/2000/svg" xmlns:xlink="http://www.w3.org/1999/xlink" xml:space="preserve" xmlns:serif="http://www.serif.com/" style="fill-rule:evenodd;clip-rule:evenodd;stroke-linejoin:round;stroke-miterlimit:2;">
    <g transform="matrix(0.625,0,0,0.625,0,0)">
        <path d="M19.137,44.299L18.125,37.903C17.54,37.694 16.915,37.399 16.251,37.019C15.586,36.639 15.008,36.248 14.514,35.847L8.53,38.595L3.605,29.904L9.077,25.907C9.018,25.63 8.981,25.313 8.964,24.953C8.947,24.594 8.939,24.276 8.939,24C8.939,23.724 8.947,23.406 8.964,23.047C8.981,22.687 9.018,22.37 9.077,22.093L3.605,18.084L8.53,9.417L14.538,12.153C15.024,11.76 15.596,11.375 16.256,10.999C16.917,10.623 17.54,10.343 18.125,10.159L19.137,3.689L28.863,3.689L29.875,10.109C30.461,10.326 31.092,10.614 31.769,10.974C32.445,11.333 33.018,11.726 33.486,12.153L39.482,9.417L44.395,18.084L38.911,21.994C38.97,22.303 39.009,22.637 39.03,22.997C39.051,23.356 39.061,23.691 39.061,24C39.061,24.309 39.051,24.636 39.03,24.978C39.009,25.321 38.97,25.647 38.911,25.957L44.395,29.904L39.47,38.595L33.474,35.847C32.98,36.248 32.412,36.645 31.769,37.038C31.125,37.431 30.494,37.719 29.875,37.903L28.863,44.299L19.137,44.299ZM23.976,30.5C25.776,30.5 27.309,29.867 28.576,28.6C29.843,27.333 30.476,25.8 30.476,24C30.476,22.2 29.843,20.667 28.576,19.4C27.309,18.133 25.776,17.5 23.976,17.5C22.176,17.5 20.643,18.133 19.376,19.4C18.109,20.667 17.476,22.2 17.476,24C17.476,25.8 18.109,27.333 19.376,28.6C20.643,29.867 22.176,30.5 23.976,30.5ZM23.976,27.5C23.001,27.5 22.174,27.158 21.495,26.475C20.816,25.792 20.476,24.967 20.476,24C20.476,23.033 20.816,22.208 21.495,21.525C22.174,20.842 23.001,20.5 23.976,20.5C24.943,20.5 25.768,20.842 26.451,21.525C27.134,22.208 27.476,23.033 27.476,24C27.476,24.967 27.134,25.792 26.451,26.475C25.768,27.158 24.943,27.5 23.976,27.5ZM21.896,40.892L26.092,40.892L26.804,35.304C27.912,35.038 28.964,34.621 29.959,34.054C30.955,33.488 31.852,32.792 32.652,31.969L37.952,34.269L39.845,30.824L35.168,27.398C35.302,26.823 35.412,26.257 35.499,25.699C35.587,25.141 35.63,24.575 35.63,24C35.63,23.425 35.595,22.859 35.524,22.301C35.454,21.743 35.335,21.177 35.168,20.602L39.856,17.176L37.952,13.732L32.664,16.032C31.897,15.149 31.023,14.41 30.04,13.815C29.058,13.219 27.979,12.842 26.804,12.684L26.104,7.108L21.896,7.108L21.208,12.684C20.058,12.909 18.984,13.311 17.985,13.89C16.985,14.468 16.099,15.182 15.324,16.032L10.048,13.732L8.143,17.176L12.808,20.59C12.674,21.165 12.564,21.733 12.477,22.295C12.389,22.857 12.346,23.425 12.346,24C12.346,24.575 12.389,25.145 12.477,25.711C12.564,26.277 12.674,26.843 12.808,27.41L8.143,30.824L10.048,34.269L15.324,31.969C16.132,32.784 17.035,33.48 18.035,34.054C19.034,34.629 20.092,35.05 21.208,35.316L21.896,40.892Z" style="fill:rgb(77,77,77);fill-rule:nonzero;"/>
    </g>
</svg>
