<?xml version="1.0" standalone="no"?>
<!DOCTYPE svg PUBLIC "-//W3C//DTD SVG 20010904//EN"
 "http://www.w3.org/TR/2001/REC-SVG-20010904/DTD/svg10.dtd">
<svg version="1.0" xmlns="http://www.w3.org/2000/svg"
 width="700.000000pt" height="700.000000pt" viewBox="0 0 700.000000 700.000000"
 preserveAspectRatio="xMidYMid meet">
<metadata>
Created by potrace 1.14, written by Peter Selinger 2001-2017
</metadata>
<g transform="translate(0.000000,700.000000) scale(0.100000,-0.100000)"
fill="#000000" stroke="none">
<path d="M3195 6909 c-788 -73 -1512 -407 -2079 -959 -300 -292 -519 -595
-697 -965 -216 -450 -322 -887 -336 -1390 -10 -374 29 -691 129 -1039 356
-1243 1401 -2191 2668 -2420 239 -43 340 -51 630 -50 302 0 424 12 681 64 535
109 1012 335 1459 689 186 148 475 452 622 656 341 473 545 993 625 1591 21
163 24 625 5 789 -48 403 -155 768 -327 1120 -171 350 -353 610 -625 889 -547
562 -1228 903 -2020 1011 -138 19 -590 28 -735 14z m760 -259 c371 -56 725
-172 1035 -337 820 -437 1406 -1203 1614 -2111 66 -284 93 -679 67 -972 -83
-939 -561 -1774 -1331 -2327 -397 -285 -875 -476 -1385 -553 -180 -27 -536
-38 -724 -21 -920 82 -1735 537 -2286 1276 -350 470 -560 1018 -615 1610 -13
141 -13 429 0 570 101 1084 725 2018 1692 2534 336 180 769 309 1173 350 160
17 600 6 760 -19z"/>
<path d="M3240 6540 c-878 -83 -1654 -514 -2177 -1207 -120 -161 -202 -294
-298 -488 -156 -317 -240 -593 -292 -965 -24 -173 -24 -584 0 -760 51 -364
135 -645 287 -955 377 -771 1043 -1338 1862 -1585 303 -91 534 -124 878 -124
273 0 391 11 628 60 610 125 1191 456 1615 919 434 475 693 1031 784 1685 24
174 24 585 0 760 -91 654 -350 1210 -784 1685 -482 526 -1128 861 -1853 960
-137 19 -517 27 -650 15z m1658 -759 c118 -18 220 -91 272 -196 l25 -50 3
-385 c2 -212 0 -404 -3 -427 -12 -81 -70 -147 -388 -440 -166 -153 -320 -292
-341 -308 -38 -29 -44 -30 -172 -35 -107 -4 -137 -8 -150 -22 -15 -15 -15 -19
-3 -38 8 -11 158 -117 334 -236 634 -429 686 -465 706 -497 18 -31 19 -62 19
-973 0 -796 -2 -943 -14 -960 -12 -16 -27 -19 -89 -19 -48 0 -80 5 -90 14 -16
12 -17 82 -17 828 0 699 -2 818 -15 843 -10 20 -231 174 -767 537 l-753 508
-541 0 -540 0 -45 -29 c-73 -49 -273 -213 -289 -238 -13 -20 -15 -177 -18
-1224 -2 -1123 -4 -1202 -20 -1217 -17 -15 -62 -21 -134 -18 -74 2 -68 -116
-68 1349 0 888 4 1329 11 1355 14 51 54 94 174 187 109 84 133 118 115 164 -5
14 -56 57 -119 100 -123 86 -155 120 -170 186 -7 28 -11 237 -11 545 0 481 1
502 21 545 23 51 70 104 114 128 27 15 113 17 905 22 1611 10 1995 10 2058 1z
m-2381 -2812 l22 -8 3 -470 3 -471 28 -27 27 -28 776 0 776 0 24 28 24 28 0
464 0 465 26 17 c33 21 144 22 175 1 l21 -14 -1 -1009 c-2 -822 -4 -1012 -15
-1023 -21 -22 -125 -27 -169 -9 l-37 16 0 276 0 276 -25 25 -24 24 -780 -2
-780 -3 -23 -23 c-23 -22 -23 -27 -26 -296 -3 -238 -5 -276 -19 -288 -22 -18
-164 -18 -187 1 -15 12 -16 94 -14 1030 l3 1016 45 12 c44 12 104 9 147 -8z"/>
<path d="M2084 5118 c-40 -19 -49 -53 -49 -188 0 -155 6 -165 139 -261 157
-114 30 -103 1081 -95 830 7 924 9 957 24 33 15 273 219 386 328 38 38 42 46
42 90 0 52 -18 83 -57 103 -29 15 -2468 14 -2499 -1z"/>
</g>
</svg>
